<svg width="16" height="16" viewBox="0 0 16 16" fill="none" xmlns="http://www.w3.org/2000/svg">
<path d="M6.98378 0C6.81578 0 6.59178 0.0959999 6.35178 0.256C5.89578 0.56 4.97578 1.52 4.61579 2.48C4.34378 3.2 4.33578 3.856 4.44778 4.344C3.99978 4.424 3.67179 4.568 3.54379 4.624C3.13579 4.8 2.27179 5.568 2.19179 6.76C2.16779 7.176 2.22379 7.6 2.35179 8C1.82379 8.152 1.51979 8.344 1.49579 8.352C1.23979 8.448 0.815785 8.744 0.695785 8.904C0.415785 9.224 0.231785 9.6 0.127785 10C-0.104215 10.872 -0.0242146 11.864 0.399785 12.664C0.631785 13.112 0.951785 13.6 1.30379 13.944C2.45579 15.128 4.43979 15.576 6.00779 15.832C7.91979 16.152 9.91979 16.04 11.7038 15.304C14.3838 14.192 15.0958 12.4 15.2078 11.912C15.4398 10.8 15.1518 9.752 15.0318 9.496C14.8558 9.128 14.5678 8.752 14.0958 8.512C13.7758 8.312 13.4958 8.208 13.2878 8.16C13.4958 7.4 13.1998 6.8 12.7918 6.352C12.1758 5.696 11.5438 5.6 11.5438 5.6C11.7518 5.2 11.8318 4.72 11.7198 4.256C11.5918 3.688 11.2798 3.328 10.8718 3.088C10.4558 2.84 9.94378 2.72 9.41578 2.624C9.15978 2.576 8.09579 2.424 7.65579 1.816C7.29578 1.32 7.28779 0.424 7.19178 0.16C7.15178 0.056 7.09578 0 6.98378 0ZM10.6958 6.088C10.7518 6.088 10.7998 6.096 10.8478 6.096C11.9918 6.224 12.8078 7.328 12.6718 8.552C12.5358 9.776 11.4958 10.672 10.3518 10.544C9.20778 10.4 8.39178 9.32 8.52779 8.088C8.65578 6.928 9.60779 6.048 10.6958 6.088ZM4.79179 6.088C5.85578 6.12 6.74378 7.024 6.82378 8.168C6.91979 9.4 6.06379 10.464 4.91979 10.552H4.91179C3.76779 10.64 2.75979 9.712 2.66379 8.48C2.57579 7.248 3.43179 6.184 4.57579 6.096C4.64779 6.088 4.71979 6.088 4.79179 6.088ZM4.80779 7.448C4.77579 7.448 4.75178 7.448 4.71979 7.456C4.27179 7.512 3.95179 7.92 4.00779 8.36C4.05579 8.8 4.46379 9.112 4.91179 9.056C5.35979 9 5.67979 8.592 5.63179 8.152C5.58379 7.736 5.21579 7.44 4.80779 7.448ZM10.6478 7.464C10.2318 7.48 9.89579 7.8 9.86378 8.224C9.83179 8.664 10.1758 9.048 10.6238 9.072C11.0958 9.104 11.4638 8.76 11.4958 8.32C11.5278 7.872 11.1838 7.488 10.7358 7.464C10.6958 7.464 10.6958 7.464 10.6478 7.464ZM4.86379 11.32C5.09579 11.312 5.30379 11.384 5.49579 11.424C6.43979 11.6 7.25578 11.624 7.64778 11.624C8.03978 11.624 8.84778 11.6 9.78378 11.424C10.1118 11.36 10.4878 11.224 10.7838 11.424C11.1678 11.68 10.8878 12.6 10.2958 13.224C9.92778 13.6 9.07178 14.328 7.64778 14.328C6.22378 14.328 5.35979 13.6 4.99979 13.224C4.40779 12.6 4.12779 11.68 4.50379 11.424C4.61579 11.352 4.73579 11.32 4.86379 11.32Z" fill="#2264D1"/>
</svg>
