<svg width="16" height="16" viewBox="0 0 16 16" fill="none" xmlns="http://www.w3.org/2000/svg">
<path d="M10.8 15.2L9.6 4.80005H11.384L10.48 1.16805L11.872 0.800049L12.872 4.80005H16L14.8 15.2H10.8ZM2.4 7.20005H6.4C7.03652 7.20005 7.64697 7.45291 8.09706 7.90299C8.54714 8.35308 8.8 8.96353 8.8 9.60005H0C0 8.96353 0.252856 8.35308 0.702944 7.90299C1.15303 7.45291 1.76348 7.20005 2.4 7.20005ZM8.8 12.8C8.8 13.4366 8.54714 14.047 8.09706 14.4971C7.64697 14.9472 7.03652 15.2 6.4 15.2H2.4C1.76348 15.2 1.15303 14.9472 0.702944 14.4971C0.252856 14.047 0 13.4366 0 12.8H8.8ZM0.8 10.4H4.8L6 11.6L7.2 10.4H8C8.21217 10.4 8.41566 10.4843 8.56569 10.6344C8.71571 10.7844 8.8 10.9879 8.8 11.2C8.8 11.4122 8.71571 11.6157 8.56569 11.7657C8.41566 11.9158 8.21217 12 8 12H0.8C0.587827 12 0.384344 11.9158 0.234315 11.7657C0.0842854 11.6157 0 11.4122 0 11.2C0 10.9879 0.0842854 10.7844 0.234315 10.6344C0.384344 10.4843 0.587827 10.4 0.8 10.4Z" fill="#2264D1"/>
</svg>
