<svg width="9" height="18" viewBox="0 0 9 18" fill="none" xmlns="http://www.w3.org/2000/svg">
<path d="M0.864012 13.896C0.200012 12.968 0.200012 11.896 0.200012 10.832C1.53601 11.632 2.86401 12.432 3.53601 13.368L3.80001 13.816V11.992C2.60001 11.272 1.46401 10.536 0.864012 9.69595C0.200012 8.76795 0.200012 7.69595 0.200012 6.63195C1.53601 7.43195 2.86401 8.23195 3.53601 9.16795L3.80001 9.63195V7.79195C2.60001 7.07195 1.46401 6.33595 0.864012 5.49595C0.200012 4.56795 0.200012 3.49595 0.200012 2.43195C1.53601 3.23195 2.86401 4.03195 3.53601 4.96795C3.61601 5.07995 3.68801 5.19995 3.75201 5.32795C3.61601 4.83195 3.52801 4.36795 3.52001 3.88795C3.51201 2.67995 4.04001 1.43995 4.56801 0.199951C5.12001 1.38395 5.67201 2.57595 5.68001 3.78395C5.68801 4.28795 5.60001 4.79995 5.45601 5.30395C5.52001 5.19195 5.58401 5.07995 5.66401 4.96795C6.33601 4.03195 7.66401 3.23195 9.00001 2.43195C9.00001 3.49595 9.00001 4.56795 8.33601 5.49595C7.73601 6.33595 6.60001 7.07195 5.40001 7.79195V9.63195L5.66401 9.16795C6.33601 8.23195 7.66401 7.43195 9.00001 6.63195C9.00001 7.69595 9.00001 8.76795 8.33601 9.69595C7.73601 10.536 6.60001 11.272 5.40001 11.992V13.816L5.66401 13.368C6.33601 12.432 7.66401 11.632 9.00001 10.832C9.00001 11.896 9.00001 12.968 8.33601 13.896C7.73601 14.736 6.60001 15.472 5.40001 16.192V17.632H3.80001V16.192C2.60001 15.472 1.46401 14.736 0.864012 13.896Z" fill="#2264D1"/>
</svg>
