<svg width="16" height="16" viewBox="0 0 16 16" fill="none" xmlns="http://www.w3.org/2000/svg">
<path d="M8.8 0V6.4H15.2C15.2 4.70261 14.5257 3.07475 13.3255 1.87452C12.1253 0.674284 10.4974 0 8.8 0ZM13.856 11.112C14.696 10.032 15.2 8.672 15.2 7.2H3.552L2.8 5.6H0V7.2H1.776C1.776 7.2 3.288 10.456 3.472 10.736C2.592 11.2 2 12.136 2 13.2C2 13.9426 2.295 14.6548 2.8201 15.1799C3.3452 15.705 4.05739 16 4.8 16C6.208 16 7.376 14.96 7.568 13.6H9.232C9.424 14.96 10.592 16 12 16C12.7426 16 13.4548 15.705 13.9799 15.1799C14.505 14.6548 14.8 13.9426 14.8 13.2C14.8 12.368 14.432 11.624 13.856 11.112ZM4.8 14.4C4.48174 14.4 4.17652 14.2736 3.95147 14.0485C3.72643 13.8235 3.6 13.5183 3.6 13.2C3.6 12.8817 3.72643 12.5765 3.95147 12.3515C4.17652 12.1264 4.48174 12 4.8 12C5.11826 12 5.42348 12.1264 5.64853 12.3515C5.87357 12.5765 6 12.8817 6 13.2C6 13.5183 5.87357 13.8235 5.64853 14.0485C5.42348 14.2736 5.11826 14.4 4.8 14.4ZM12 14.4C11.6817 14.4 11.3765 14.2736 11.1515 14.0485C10.9264 13.8235 10.8 13.5183 10.8 13.2C10.8 12.8817 10.9264 12.5765 11.1515 12.3515C11.3765 12.1264 11.6817 12 12 12C12.3183 12 12.6235 12.1264 12.8485 12.3515C13.0736 12.5765 13.2 12.8817 13.2 13.2C13.2 13.5183 13.0736 13.8235 12.8485 14.0485C12.6235 14.2736 12.3183 14.4 12 14.4Z" fill="#2264D1"/>
</svg>
