<svg xmlns="http://www.w3.org/2000/svg" height="512" viewBox="0 0 512 512" width="512"><path d="m420.4 0h-328.8c-50.5 0-91.6 41.1-91.6 91.6v328.8c0 50.5 41.1 91.6 91.6 91.6h328.8c50.5 0 91.6-41.1 91.6-91.6v-328.8c0-50.5-41.1-91.6-91.6-91.6zm61.6 420.4c0 34-27.6 61.6-61.6 61.6h-328.8c-34 0-61.6-27.6-61.6-61.6v-328.8c0-34 27.6-61.6 61.6-61.6h328.8c34 0 61.6 27.6 61.6 61.6z"/><path d="m432.7 112.5h-228.5c-6.3-18.7-23.9-32.1-44.7-32.1s-38.4 13.5-44.7 32.1h-35.7c-8.3 0-15 6.7-15 15s6.7 15 15 15h35.7c6.3 18.7 23.9 32.1 44.7 32.1s38.4-13.5 44.7-32.1h228.5c8.3 0 15-6.7 15-15s-6.7-15-15-15zm-273.1 32.1c-9.4 0-17.1-7.7-17.1-17.1s7.7-17.1 17.1-17.1 17.1 7.7 17.1 17.1-7.7 17.1-17.1 17.1z"/><path d="m432.7 241h-35.7c-6.3-18.7-23.9-32.1-44.7-32.1s-38.4 13.5-44.7 32.1h-228.5c-8.3 0-15 6.7-15 15s6.7 15 15 15h228.5c6.3 18.7 23.9 32.1 44.7 32.1s38.4-13.5 44.7-32.1h35.7c8.3 0 15-6.7 15-15s-6.7-15-15-15zm-80.3 32.1c-9.4 0-17.1-7.7-17.1-17.1s7.7-17.1 17.1-17.1 17.1 7.7 17.1 17.1-7.7 17.1-17.1 17.1z"/><path d="m432.7 369.5h-164.2c-6.3-18.7-23.9-32.1-44.7-32.1s-38.4 13.5-44.7 32.1h-99.9c-8.3 0-15 6.7-15 15s6.7 15 15 15h99.9c6.3 18.7 23.9 32.1 44.7 32.1s38.4-13.5 44.7-32.1h164.2c8.3 0 15-6.7 15-15s-6.7-15-15-15zm-208.9 32.1c-9.4 0-17.1-7.7-17.1-17.1s7.7-17.1 17.1-17.1 17.1 7.7 17.1 17.1-7.7 17.1-17.1 17.1z"/></svg>
