<?xml version="1.0" encoding="utf-8"?><svg viewBox="0 0 22 22" xmlns="http://www.w3.org/2000/svg" xmlns:xlink="http://www.w3.org/1999/xlink"><style>:root>svg{display:none}:root>svg:target{display:block}</style><svg viewBox="0 0 20 17" id="1" xmlns="http://www.w3.org/2000/svg"><path d="M18.76 12.34h-.01c.75.43 1.25 1.24 1.25 2.16a2.5 2.5 0 01-2.5 2.5h-15A2.5 2.5 0 010 14.5c0-.92.5-1.73 1.25-2.16h-.01L9 7.86S9 7 10 6c1 0 2-.9 2-2a2 2 0 10-4 0H6a4 4 0 018 0 4 4 0 01-3 3.87l7.76 4.47zM2.5 15h15c.17 0 .34-.09.43-.25.14-.25.07-.54-.18-.68L10 9.59l-7.75 4.48c-.25.14-.32.43-.18.68.09.16.26.25.43.25z"/></svg><svg viewBox="0 0 19 20" id="10" xmlns="http://www.w3.org/2000/svg"><path d="M11 0v8h8a8 8 0 00-8-8zm6.32 13.89A7.948 7.948 0 0019 9H4.44L3.5 7H0v2h2.22s1.89 4.07 2.12 4.42C3.24 14 2.5 15.17 2.5 16.5A3.5 3.5 0 006 20c1.76 0 3.22-1.3 3.46-3h2.08c.24 1.7 1.7 3 3.46 3a3.5 3.5 0 003.5-3.5c0-1.04-.46-1.97-1.18-2.61zM6 18a1.5 1.5 0 110-3 1.5 1.5 0 010 3zm9 0a1.5 1.5 0 110-3 1.5 1.5 0 010 3z"/></svg><svg viewBox="0 0 20 20" id="11" xmlns="http://www.w3.org/2000/svg"><path d="M10 7.22a2 2 0 110 4 2 2 0 010-4zm0 12c-1.95 0-3.78-.56-5.31-1.53l3.31-5a4.037 4.037 0 004 0l3.31 5A9.903 9.903 0 0110 19.22zm-10-10C0 5.08 2.5 1.52 6.11 0l2.23 5.58A4.008 4.008 0 006 9.22H0zm14 0c0-1.62-.96-3-2.34-3.64L13.89 0A9.985 9.985 0 0120 9.22h-6z"/></svg><svg viewBox="0 0 22 20" id="12" xmlns="http://www.w3.org/2000/svg"><path d="M1 8.66l2.05.1a7.96 7.96 0 013.2-5.54L5.13 1.5C4.86 1.02 5 .41 5.5.13 6-.14 6.59.02 6.87.5l.93 1.82a8.102 8.102 0 016.4 0L15.13.5c.28-.48.87-.64 1.37-.37.5.28.64.89.37 1.37l-1.12 1.72a7.96 7.96 0 013.2 5.54l2.05-.1a1 1 0 110 2l-2.05-.1a7.96 7.96 0 01-3.2 5.54l1.12 1.72c.27.48.13 1.09-.37 1.37-.5.27-1.09.11-1.37-.37L14.2 17a8.102 8.102 0 01-6.4 0l-.93 1.82c-.28.48-.87.64-1.37.37-.5-.28-.64-.89-.37-1.37l1.12-1.72a7.96 7.96 0 01-3.2-5.54l-2.05.1a1 1 0 010-2zm7.07.35c.13-.61.46-1.15.93-1.56L7.34 4.91a5.993 5.993 0 00-2.29 3.95l3.02.15zM11 6.66c.32 0 .62.05.9.14l1.38-2.69c-.7-.29-1.47-.45-2.28-.45-.81 0-1.58.16-2.28.45L10.1 6.8c.28-.09.58-.14.9-.14zm2.93 2.35l3.02-.15a5.993 5.993 0 00-2.29-3.95L13 7.45c.47.41.8.95.93 1.56zm0 1.3c-.13.61-.46 1.15-.93 1.56l1.66 2.54a5.993 5.993 0 002.29-3.95l-3.02-.15zM11 12.66c-.32 0-.62-.05-.91-.14l-1.37 2.69c.7.29 1.47.45 2.28.45.81 0 1.58-.16 2.28-.45l-1.37-2.69c-.29.09-.59.14-.91.14zm-2.93-2.35l-3.02.15c.22 1.6 1.06 3.01 2.29 3.95L9 11.87c-.47-.41-.8-.95-.93-1.56z"/></svg><svg viewBox="0 0 16 18" id="2" xmlns="http://www.w3.org/2000/svg"><path d="M14 6h-2V4h2v2zm0 4h-2V8h2v2zm0 4h-2v-2h2v2zM4 6H2V4h2v2zm0 4H2V8h2v2zm0 4H2v-2h2v2zM14 0v2h-2V0H4v2H2V0H0v18h2v-2h2v2h8v-2h2v2h2V0h-2z"/></svg><svg viewBox="0 0 19 18" id="3" xmlns="http://www.w3.org/2000/svg"><path d="M19 0v12.5a3.5 3.5 0 11-2-3.16V3.47L7 5.6v8.9a3.5 3.5 0 11-2-3.16V3l14-3z"/></svg><svg viewBox="0 0 19 19" id="4" xmlns="http://www.w3.org/2000/svg"><path d="M1.702 11.602l-.72-.71a2.01 2.01 0 010-2.82c.8-.79 2.06-.79 2.84 0l2.58 2.57 4.24-4.24-2.57-2.58c-.79-.78-.79-2.04 0-2.84a2.01 2.01 0 012.82 0l.71.72 5.66 5.66.72.71c.77.78.77 2.04 0 2.82-.8.79-2.06.79-2.84 0l-2.58-2.57-4.24 4.24 2.57 2.58c.79.78.79 2.04 0 2.84-.78.77-2.04.77-2.82 0l-.71-.72-5.66-5.66zm-1.06 5.3l1.06-1.06-1.41-1.41a.996.996 0 111.41-1.41l4.24 4.24a.996.996 0 11-1.41 1.41l-1.41-1.41-1.06 1.06-1.42-1.42zM16.902.642l1.42 1.42-1.06 1.06 1.41 1.41c.39.39.39 1.02 0 1.41-.39.4-1.02.4-1.41 0l-4.24-4.24a.996.996 0 111.41-1.41l1.41 1.41 1.06-1.06z"/></svg><svg viewBox="0 0 20 10" id="5" xmlns="http://www.w3.org/2000/svg"><path d="M6 7a3 3 0 11-6 0c0-.77.29-1.47.76-2A3.006 3.006 0 01.879.879 3 3 0 016 3c1.33.08 2.67.17 4 .17s2.67-.09 4-.17a3 3 0 016 0c0 .77-.29 1.47-.76 2a3.006 3.006 0 01-.119 4.121A3 3 0 0114 7c-1.33-.08-2.67-.17-4-.17S7.33 6.92 6 7z"/></svg><svg viewBox="0 0 20 19" id="6" xmlns="http://www.w3.org/2000/svg"><path d="M5.36 10.52L1.17 6.34a4.008 4.008 0 010-5.66l7.02 7-2.83 2.84zm5.31-.34l6.88 6.88-1.41 1.41-6.88-6.88-6.88 6.88-1.41-1.41 9.65-9.66-.2-.22a1.98 1.98 0 010-2.81L14.76 0l.93.92-3.24 3.26.96.94 3.24-3.25.92.92-3.25 3.24.94.96 3.26-3.25.92.94-4.37 4.34c-.78.78-2.04.78-2.81 0l-.22-.2-1.37 1.36z"/></svg><svg viewBox="0 0 16 18" id="7" xmlns="http://www.w3.org/2000/svg"><path d="M7 3h2v7H7V3zM5 17a1 1 0 01-1 1H1a1 1 0 01-1-1v-5l2-9h4v7a1 1 0 01-1 1v6zM6 2H3V0h3v2zm5 15v-6a1 1 0 01-1-1V3h4l2 9v5a1 1 0 01-1 1h-3a1 1 0 01-1-1zM10 2V0h3v2h-3z"/></svg><svg viewBox="0 0 11 22" id="8" xmlns="http://www.w3.org/2000/svg"><path d="M.83 17.12C0 15.96 0 14.62 0 13.29c1.67 1 3.33 2 4.17 3.17l.33.56v-2.28c-1.5-.9-2.92-1.82-3.67-2.87C0 10.71 0 9.37 0 8.04c1.67 1 3.33 2 4.17 3.17l.33.58v-2.3C3 8.59 1.58 7.67.83 6.62 0 5.46 0 4.12 0 2.79c1.67 1 3.33 2 4.17 3.17.1.14.19.29.27.45-.17-.62-.28-1.2-.29-1.8C4.14 3.1 4.8 1.55 5.46 0c.69 1.48 1.38 2.97 1.39 4.48.01.63-.1 1.27-.28 1.9.08-.14.16-.28.26-.42.84-1.17 2.5-2.17 4.17-3.17 0 1.33 0 2.67-.83 3.83C9.42 7.67 8 8.59 6.5 9.49v2.3l.33-.58c.84-1.17 2.5-2.17 4.17-3.17 0 1.33 0 2.67-.83 3.83-.75 1.05-2.17 1.97-3.67 2.87v2.28l.33-.56c.84-1.17 2.5-2.17 4.17-3.17 0 1.33 0 2.67-.83 3.83-.75 1.05-2.17 1.97-3.67 2.87v1.8h-2v-1.8c-1.5-.9-2.92-1.82-3.67-2.87z"/></svg><svg viewBox="0 0 10 20" id="9" xmlns="http://www.w3.org/2000/svg"><path d="M0 0h10L6.5 7H10L3 20v-8H0V0zm2 2v8h3v2.66L7 9H3.24l3.52-7H2z"/></svg></svg>